# xmcd
#
# Track frame offsets:
#	150
#	11882
#	23953
#	37510
#	51800
#	67751
#	81492
#	94708
#	108623
#	128518
#	141246
#	154080
#	165189
#	178289
#	189571
#	202745
#	214033
#	227529
#	249154
#	273675
#
# Disc length: 3953 seconds
#
# Revision: 1
# Processed by: cddbd v1.5.1PL2 Copyright (c) Steve Scherf et al.
# Submitted via: audiograbber 1.83.01
#
DISCID=040f6f14
DTITLE=Various Artist - Emselex Blues
DYEAR=1900
DGENRE=Blues
TTITLE0=C.C. Rider - Leadbelly
TTITLE1=King Oliver - Dippermouth Blues
TTITLE2=Robert Johnsen - Sweet Home Chicago
TTITLE3=Bessie Smith - St. Louis Blues
TTITLE4=Big Bill Broonzy - The Southern Blues
TTITLE5=Sonny Terry and Brownie Mc Gee - Don´t dog your woman
TTITLE6=Sidney Bechet - Blues In Thirds
TTITLE7=Jimmy Rushing with Count Basie - Going to Chicago Blues
TTITLE8=Joe Turner - Nothin´ From Nothin´ Blues
TTITLE9=T-Bone Walker - Stormy Monday Blues
TTITLE10=Muddy Waters - Hoochie Coochie Man
TTITLE11=Wilbert Harrison - Kansas City
TTITLE12=Elmore James - Dust My Broom
TTITLE13=John Lee Hooker - Boom Boom
TTITLE14=Roy Brown - Cadillac Baby
TTITLE15=Jimmy Reed - Signals of Love
TTITLE16=Ray Charles - Baby let me hold your hand
TTITLE17=Robert Cray - I´d rather be a wino
TTITLE18=B.B. King - Woke up this morning
TTITLE19=Data only - Daten-CD
EXTD=
EXTT0=
EXTT1=
EXTT2=
EXTT3=
EXTT4=
EXTT5=
EXTT6=
EXTT7=
EXTT8=
EXTT9=
EXTT10=
EXTT11=
EXTT12=
EXTT13=
EXTT14=
EXTT15=
EXTT16=
EXTT17=
EXTT18=
EXTT19=
PLAYORDER=
